<svg xmlns="http://www.w3.org/2000/svg" version="1.1" xmlns:xlink="http://www.w3.org/1999/xlink" xmlns:svgjs="http://svgjs.dev/svgjs" viewBox="0 0 800 800"><defs><linearGradient x1="50%" y1="0%" x2="50%" y2="100%" id="nnneon-grad"><stop stop-color="#9510c2" stop-opacity="1" offset="0%"></stop><stop stop-color="#e90064" stop-opacity="1" offset="100%"></stop></linearGradient><filter id="nnneon-filter" x="-100%" y="-100%" width="400%" height="400%" filterUnits="objectBoundingBox" primitiveUnits="userSpaceOnUse" color-interpolation-filters="sRGB">
	<feGaussianBlur stdDeviation="17 8" x="0%" y="0%" width="100%" height="100%" in="SourceGraphic" edgeMode="none" result="blur"></feGaussianBlur></filter><filter id="nnneon-filter2" x="-100%" y="-100%" width="400%" height="400%" filterUnits="objectBoundingBox" primitiveUnits="userSpaceOnUse" color-interpolation-filters="sRGB">
	<feGaussianBlur stdDeviation="10 17" x="0%" y="0%" width="100%" height="100%" in="SourceGraphic" edgeMode="none" result="blur"></feGaussianBlur></filter></defs><g stroke-width="16" stroke="url(#nnneon-grad)" fill="none"><path d="M374.4042042730795 30.839069889171867C390.2429015531752 21.696240754636932 409.75715948198103 21.696240754636932 425.5958567620768 30.841629471796352L706.9042255196149 193.25482574101363C722.7429227997106 202.3976548755486 732.5000517641136 219.29857894479107 732.5000517641136 237.5867967964855V562.41318933492C732.5000517641136 580.7014071866145 722.7429227997106 597.6023312558569 706.9042255196149 606.7477199730163L425.5958567620768 769.1609162422336C409.75715948198103 778.3037453767685 390.2429015531752 778.3037453767685 374.4042042730795 769.1583566596092L93.09583551554135 606.7451603903919C77.25713823544561 597.6023312558569 67.5000092710427 580.7014071866145 67.5000092710427 562.41318933492V237.5867967964855C67.5000092710427 219.29857894479107 77.25713823544561 202.3976548755486 93.09583551554135 193.25226615838926L374.4042042730795 30.839069889171867Z " filter="url(#nnneon-filter)"></path><path d="M386.4042042730795 30.839069889171867C402.2429015531752 21.696240754636932 421.75715948198103 21.696240754636932 437.5958567620768 30.841629471796352L718.9042255196149 193.25482574101363C734.7429227997106 202.3976548755486 744.5000517641136 219.29857894479107 744.5000517641136 237.5867967964855V562.41318933492C744.5000517641136 580.7014071866145 734.7429227997106 597.6023312558569 718.9042255196149 606.7477199730163L437.5958567620768 769.1609162422336C421.75715948198103 778.3037453767685 402.2429015531752 778.3037453767685 386.4042042730795 769.1583566596092L105.09583551554135 606.7451603903919C89.25713823544561 597.6023312558569 79.5000092710427 580.7014071866145 79.5000092710427 562.41318933492V237.5867967964855C79.5000092710427 219.29857894479107 89.25713823544561 202.3976548755486 105.09583551554135 193.25226615838926L386.4042042730795 30.839069889171867Z " filter="url(#nnneon-filter2)" opacity="0.25"></path><path d="M362.4042042730795 30.839069889171867C378.2429015531752 21.696240754636932 397.75715948198103 21.696240754636932 413.5958567620768 30.841629471796352L694.9042255196149 193.25482574101363C710.7429227997106 202.3976548755486 720.5000517641136 219.29857894479107 720.5000517641136 237.5867967964855V562.41318933492C720.5000517641136 580.7014071866145 710.7429227997106 597.6023312558569 694.9042255196149 606.7477199730163L413.5958567620768 769.1609162422336C397.75715948198103 778.3037453767685 378.2429015531752 778.3037453767685 362.4042042730795 769.1583566596092L81.09583551554135 606.7451603903919C65.25713823544561 597.6023312558569 55.5000092710427 580.7014071866145 55.5000092710427 562.41318933492V237.5867967964855C55.5000092710427 219.29857894479107 65.25713823544561 202.3976548755486 81.09583551554135 193.25226615838926L362.4042042730795 30.839069889171867Z " filter="url(#nnneon-filter2)" opacity="0.25"></path><path d="M374.4042042730795 30.839069889171867C390.2429015531752 21.696240754636932 409.75715948198103 21.696240754636932 425.5958567620768 30.841629471796352L706.9042255196149 193.25482574101363C722.7429227997106 202.3976548755486 732.5000517641136 219.29857894479107 732.5000517641136 237.5867967964855V562.41318933492C732.5000517641136 580.7014071866145 722.7429227997106 597.6023312558569 706.9042255196149 606.7477199730163L425.5958567620768 769.1609162422336C409.75715948198103 778.3037453767685 390.2429015531752 778.3037453767685 374.4042042730795 769.1583566596092L93.09583551554135 606.7451603903919C77.25713823544561 597.6023312558569 67.5000092710427 580.7014071866145 67.5000092710427 562.41318933492V237.5867967964855C67.5000092710427 219.29857894479107 77.25713823544561 202.3976548755486 93.09583551554135 193.25226615838926L374.4042042730795 30.839069889171867Z "></path></g></svg>