<svg id="visual" viewBox="0 0 900 600" width="900" height="600" xmlns="http://www.w3.org/2000/svg" xmlns:xlink="http://www.w3.org/1999/xlink" version="1.1"><path d="M0 434L25 413.7C50 393.3 100 352.7 150 356.8C200 361 250 410 300 407C350 404 400 349 450 357.3C500 365.7 550 437.3 600 458.8C650 480.3 700 451.7 750 448.2C800 444.7 850 466.3 875 477.2L900 488L900 601L875 601C850 601 800 601 750 601C700 601 650 601 600 601C550 601 500 601 450 601C400 601 350 601 300 601C250 601 200 601 150 601C100 601 50 601 25 601L0 601Z" fill="#e90064" stroke-linecap="round" stroke-linejoin="miter"></path></svg>