<svg xmlns="http://www.w3.org/2000/svg" version="1.1" xmlns:xlink="http://www.w3.org/1999/xlink" xmlns:svgjs="http://svgjs.dev/svgjs" viewBox="0 0 800 800"><defs><linearGradient x1="50%" y1="0%" x2="50%" y2="100%" id="nnneon-grad"><stop stop-color="#810CA8" stop-opacity="1" offset="0%"></stop><stop stop-color="#c91824" stop-opacity="1" offset="100%"></stop></linearGradient><filter id="nnneon-filter" x="-100%" y="-100%" width="400%" height="400%" filterUnits="objectBoundingBox" primitiveUnits="userSpaceOnUse" color-interpolation-filters="sRGB">
	<feGaussianBlur stdDeviation="17 8" x="0%" y="0%" width="100%" height="100%" in="SourceGraphic" edgeMode="none" result="blur"></feGaussianBlur></filter><filter id="nnneon-filter2" x="-100%" y="-100%" width="400%" height="400%" filterUnits="objectBoundingBox" primitiveUnits="userSpaceOnUse" color-interpolation-filters="sRGB">
	<feGaussianBlur stdDeviation="10 17" x="0%" y="0%" width="100%" height="100%" in="SourceGraphic" edgeMode="none" result="blur"></feGaussianBlur></filter></defs><g stroke-width="16" stroke="url(#nnneon-grad)" fill="none"><path d="M400.0000305175781 32.2283935546875L718.5000508695226 216.11419789016475V583.8858065611192L400.0000305175781 767.7716108965965L81.50001016563363 583.8858065611192V216.11419789016475L400.0000305175781 32.2283935546875Z " filter="url(#nnneon-filter)"></path><path d="M412.0000305175781 32.2283935546875L730.5000508695226 216.11419789016475V583.8858065611192L412.0000305175781 767.7716108965965L93.50001016563363 583.8858065611192V216.11419789016475L412.0000305175781 32.2283935546875Z " filter="url(#nnneon-filter2)" opacity="0.25"></path><path d="M388.0000305175781 32.2283935546875L706.5000508695226 216.11419789016475V583.8858065611192L388.0000305175781 767.7716108965965L69.50001016563363 583.8858065611192V216.11419789016475L388.0000305175781 32.2283935546875Z " filter="url(#nnneon-filter2)" opacity="0.25"></path><path d="M400.0000305175781 32.2283935546875L718.5000508695226 216.11419789016475V583.8858065611192L400.0000305175781 767.7716108965965L81.50001016563363 583.8858065611192V216.11419789016475L400.0000305175781 32.2283935546875Z "></path></g></svg>