<svg xmlns="http://www.w3.org/2000/svg" version="1.1" xmlns:xlink="http://www.w3.org/1999/xlink" xmlns:svgjs="http://svgjs.dev/svgjs" viewBox="0 0 800 800"><defs><linearGradient x1="50%" y1="0%" x2="50%" y2="100%" id="nnneon-grad"><stop stop-color="#9510c2" stop-opacity="1" offset="0%"></stop><stop stop-color="hsl(331, 87%, 61%)" stop-opacity="1" offset="100%"></stop></linearGradient><filter id="nnneon-filter" x="-100%" y="-100%" width="400%" height="400%" filterUnits="objectBoundingBox" primitiveUnits="userSpaceOnUse" color-interpolation-filters="sRGB">
	<feGaussianBlur stdDeviation="17 8" x="0%" y="0%" width="100%" height="100%" in="SourceGraphic" edgeMode="none" result="blur"></feGaussianBlur></filter><filter id="nnneon-filter2" x="-100%" y="-100%" width="400%" height="400%" filterUnits="objectBoundingBox" primitiveUnits="userSpaceOnUse" color-interpolation-filters="sRGB">
	<feGaussianBlur stdDeviation="10 17" x="0%" y="0%" width="100%" height="100%" in="SourceGraphic" edgeMode="none" result="blur"></feGaussianBlur></filter></defs><g stroke-width="8.5" stroke="url(#nnneon-grad)" fill="none" transform="rotate(79, 400, 400)"><path d="M380.3452654545648 138.14442591736096C388.3975019889474 121.87329435823312 411.60250389712667 121.87329435823312 419.65474043150925 138.14442591736096L669.197322376802 642.4047745086938C676.4096878347497 656.9786209159665 665.8049449479649 674.0589233033044 649.5447777632031 674.0589233033044H150.45522812287084C134.19506093810895 674.0589233033044 123.59031805132435 656.9786209159665 130.80268350927196 642.4047745086938L380.3452654545648 138.14442591736096Z " filter="url(#nnneon-filter)"></path><path d="M392.3452654545648 138.14442591736096C400.3975019889474 121.87329435823312 423.60250389712667 121.87329435823312 431.65474043150925 138.14442591736096L681.197322376802 642.4047745086938C688.4096878347497 656.9786209159665 677.8049449479649 674.0589233033044 661.5447777632031 674.0589233033044H162.45522812287084C146.19506093810895 674.0589233033044 135.59031805132435 656.9786209159665 142.80268350927196 642.4047745086938L392.3452654545648 138.14442591736096Z " filter="url(#nnneon-filter2)" opacity="0.25"></path><path d="M368.3452654545648 138.14442591736096C376.3975019889474 121.87329435823312 399.60250389712667 121.87329435823312 407.65474043150925 138.14442591736096L657.197322376802 642.4047745086938C664.4096878347497 656.9786209159665 653.8049449479649 674.0589233033044 637.5447777632031 674.0589233033044H138.45522812287084C122.19506093810895 674.0589233033044 111.59031805132435 656.9786209159665 118.80268350927196 642.4047745086938L368.3452654545648 138.14442591736096Z " filter="url(#nnneon-filter2)" opacity="0.25"></path><path d="M380.3452654545648 138.14442591736096C388.3975019889474 121.87329435823312 411.60250389712667 121.87329435823312 419.65474043150925 138.14442591736096L669.197322376802 642.4047745086938C676.4096878347497 656.9786209159665 665.8049449479649 674.0589233033044 649.5447777632031 674.0589233033044H150.45522812287084C134.19506093810895 674.0589233033044 123.59031805132435 656.9786209159665 130.80268350927196 642.4047745086938L380.3452654545648 138.14442591736096Z "></path></g></svg>