<svg xmlns="http://www.w3.org/2000/svg" version="1.1" xmlns:xlink="http://www.w3.org/1999/xlink" xmlns:svgjs="http://svgjs.dev/svgjs" viewBox="0 0 800 800" opacity="0.52" width="800" height="800"><g stroke-width="2.25" stroke="#9510c2" fill="none"><rect width="30.76923076923077" height="5.421052631578947" x="-15.384615384615385" y="-2.7105263157894735" stroke="none" fill="#e90064" rx="2.7105263157894735" transform="rotate(45, 0, 0)"></rect><rect width="5.421052631578947" height="30.76923076923077" x="-2.7105263157894735" y="-15.384615384615385" stroke="none" fill="#e90064" rx="2.7105263157894735" transform="rotate(45, 0, 0)"></rect><rect width="30.76923076923077" height="5.421052631578947" x="73.5042735042735" y="-2.7105263157894735" stroke="none" fill="#9510c2" rx="2.7105263157894735" transform="rotate(45, 88.88888888888889, 0)"></rect><rect width="5.421052631578947" height="30.76923076923077" x="86.1783625730994" y="-15.384615384615385" stroke="none" fill="#9510c2" rx="2.7105263157894735" transform="rotate(45, 88.88888888888889, 0)"></rect><rect width="30.76923076923077" height="5.421052631578947" x="162.39316239316238" y="-2.7105263157894735" stroke="none" fill="#e90064" rx="2.7105263157894735" transform="rotate(45, 177.77777777777777, 0)"></rect><rect width="5.421052631578947" height="30.76923076923077" x="175.0672514619883" y="-15.384615384615385" stroke="none" fill="#e90064" rx="2.7105263157894735" transform="rotate(45, 177.77777777777777, 0)"></rect><rect width="30.76923076923077" height="5.421052631578947" x="251.28205128205124" y="-2.7105263157894735" stroke="none" fill="#9510c2" rx="2.7105263157894735" transform="rotate(45, 266.66666666666663, 0)"></rect><rect width="5.421052631578947" height="30.76923076923077" x="263.95614035087715" y="-15.384615384615385" stroke="none" fill="#9510c2" rx="2.7105263157894735" transform="rotate(45, 266.66666666666663, 0)"></rect><rect width="30.76923076923077" height="5.421052631578947" x="340.1709401709402" y="-2.7105263157894735" stroke="none" fill="#e90064" rx="2.7105263157894735" transform="rotate(45, 355.55555555555554, 0)"></rect><rect width="5.421052631578947" height="30.76923076923077" x="352.84502923976606" y="-15.384615384615385" stroke="none" fill="#e90064" rx="2.7105263157894735" transform="rotate(45, 355.55555555555554, 0)"></rect><rect width="30.76923076923077" height="5.421052631578947" x="429.0598290598291" y="-2.7105263157894735" stroke="none" fill="#9510c2" rx="2.7105263157894735" transform="rotate(45, 444.44444444444446, 0)"></rect><rect width="5.421052631578947" height="30.76923076923077" x="441.733918128655" y="-15.384615384615385" stroke="none" fill="#9510c2" rx="2.7105263157894735" transform="rotate(45, 444.44444444444446, 0)"></rect><rect width="30.76923076923077" height="5.421052631578947" x="517.948717948718" y="-2.7105263157894735" stroke="none" fill="#e90064" rx="2.7105263157894735" transform="rotate(45, 533.3333333333334, 0)"></rect><rect width="5.421052631578947" height="30.76923076923077" x="530.6228070175439" y="-15.384615384615385" stroke="none" fill="#e90064" rx="2.7105263157894735" transform="rotate(45, 533.3333333333334, 0)"></rect><rect width="30.76923076923077" height="5.421052631578947" x="606.8376068376069" y="-2.7105263157894735" stroke="none" fill="#9510c2" rx="2.7105263157894735" transform="rotate(45, 622.2222222222223, 0)"></rect><rect width="5.421052631578947" height="30.76923076923077" x="619.5116959064328" y="-15.384615384615385" stroke="none" fill="#9510c2" rx="2.7105263157894735" transform="rotate(45, 622.2222222222223, 0)"></rect><rect width="30.76923076923077" height="5.421052631578947" x="695.7264957264958" y="-2.7105263157894735" stroke="none" fill="#e90064" rx="2.7105263157894735" transform="rotate(45, 711.1111111111112, 0)"></rect><rect width="5.421052631578947" height="30.76923076923077" x="708.4005847953217" y="-15.384615384615385" stroke="none" fill="#e90064" rx="2.7105263157894735" transform="rotate(45, 711.1111111111112, 0)"></rect><rect width="30.76923076923077" height="5.421052631578947" x="784.6153846153848" y="-2.7105263157894735" stroke="none" fill="#9510c2" rx="2.7105263157894735" transform="rotate(45, 800.0000000000001, 0)"></rect><rect width="5.421052631578947" height="30.76923076923077" x="797.2894736842106" y="-15.384615384615385" stroke="none" fill="#9510c2" rx="2.7105263157894735" transform="rotate(45, 800.0000000000001, 0)"></rect><rect width="30.76923076923077" height="5.421052631578947" x="-15.384615384615385" y="58.82793522267207" stroke="none" fill="#e90064" rx="2.7105263157894735" transform="rotate(45, 0, 61.53846153846154)"></rect><rect width="5.421052631578947" height="30.76923076923077" x="-2.7105263157894735" y="46.15384615384615" stroke="none" fill="#e90064" rx="2.7105263157894735" transform="rotate(45, 0, 61.53846153846154)"></rect><rect width="30.76923076923077" height="5.421052631578947" x="73.5042735042735" y="58.82793522267207" stroke="none" fill="#9510c2" rx="2.7105263157894735" transform="rotate(45, 88.88888888888889, 61.53846153846154)"></rect><rect width="5.421052631578947" height="30.76923076923077" x="86.1783625730994" y="46.15384615384615" stroke="none" fill="#9510c2" rx="2.7105263157894735" transform="rotate(45, 88.88888888888889, 61.53846153846154)"></rect><rect width="30.76923076923077" height="5.421052631578947" x="162.39316239316238" y="58.82793522267207" stroke="none" fill="#e90064" rx="2.7105263157894735" transform="rotate(45, 177.77777777777777, 61.53846153846154)"></rect><rect width="5.421052631578947" height="30.76923076923077" x="175.0672514619883" y="46.15384615384615" stroke="none" fill="#e90064" rx="2.7105263157894735" transform="rotate(45, 177.77777777777777, 61.53846153846154)"></rect><rect width="30.76923076923077" height="5.421052631578947" x="251.28205128205124" y="58.82793522267207" stroke="none" fill="#9510c2" rx="2.7105263157894735" transform="rotate(45, 266.66666666666663, 61.53846153846154)"></rect><rect width="5.421052631578947" height="30.76923076923077" x="263.95614035087715" y="46.15384615384615" stroke="none" fill="#9510c2" rx="2.7105263157894735" transform="rotate(45, 266.66666666666663, 61.53846153846154)"></rect><rect width="30.76923076923077" height="5.421052631578947" x="340.1709401709402" y="58.82793522267207" stroke="none" fill="#e90064" rx="2.7105263157894735" transform="rotate(45, 355.55555555555554, 61.53846153846154)"></rect><rect width="5.421052631578947" height="30.76923076923077" x="352.84502923976606" y="46.15384615384615" stroke="none" fill="#e90064" rx="2.7105263157894735" transform="rotate(45, 355.55555555555554, 61.53846153846154)"></rect><rect width="30.76923076923077" height="5.421052631578947" x="429.0598290598291" y="58.82793522267207" stroke="none" fill="#9510c2" rx="2.7105263157894735" transform="rotate(45, 444.44444444444446, 61.53846153846154)"></rect><rect width="5.421052631578947" height="30.76923076923077" x="441.733918128655" y="46.15384615384615" stroke="none" fill="#9510c2" rx="2.7105263157894735" transform="rotate(45, 444.44444444444446, 61.53846153846154)"></rect><rect width="30.76923076923077" height="5.421052631578947" x="517.948717948718" y="58.82793522267207" stroke="none" fill="#e90064" rx="2.7105263157894735" transform="rotate(45, 533.3333333333334, 61.53846153846154)"></rect><rect width="5.421052631578947" height="30.76923076923077" x="530.6228070175439" y="46.15384615384615" stroke="none" fill="#e90064" rx="2.7105263157894735" transform="rotate(45, 533.3333333333334, 61.53846153846154)"></rect><rect width="30.76923076923077" height="5.421052631578947" x="606.8376068376069" y="58.82793522267207" stroke="none" fill="#9510c2" rx="2.7105263157894735" transform="rotate(45, 622.2222222222223, 61.53846153846154)"></rect><rect width="5.421052631578947" height="30.76923076923077" x="619.5116959064328" y="46.15384615384615" stroke="none" fill="#9510c2" rx="2.7105263157894735" transform="rotate(45, 622.2222222222223, 61.53846153846154)"></rect><rect width="30.76923076923077" height="5.421052631578947" x="695.7264957264958" y="58.82793522267207" stroke="none" fill="#e90064" rx="2.7105263157894735" transform="rotate(45, 711.1111111111112, 61.53846153846154)"></rect><rect width="5.421052631578947" height="30.76923076923077" x="708.4005847953217" y="46.15384615384615" stroke="none" fill="#e90064" rx="2.7105263157894735" transform="rotate(45, 711.1111111111112, 61.53846153846154)"></rect><rect width="30.76923076923077" height="5.421052631578947" x="784.6153846153848" y="58.82793522267207" stroke="none" fill="#9510c2" rx="2.7105263157894735" transform="rotate(45, 800.0000000000001, 61.53846153846154)"></rect><rect width="5.421052631578947" height="30.76923076923077" x="797.2894736842106" y="46.15384615384615" stroke="none" fill="#9510c2" rx="2.7105263157894735" transform="rotate(45, 800.0000000000001, 61.53846153846154)"></rect><rect width="30.76923076923077" height="5.421052631578947" x="-15.384615384615385" y="120.3663967611336" stroke="none" fill="#e90064" rx="2.7105263157894735" transform="rotate(45, 0, 123.07692307692308)"></rect><rect width="5.421052631578947" height="30.76923076923077" x="-2.7105263157894735" y="107.6923076923077" stroke="none" fill="#e90064" rx="2.7105263157894735" transform="rotate(45, 0, 123.07692307692308)"></rect><rect width="30.76923076923077" height="5.421052631578947" x="73.5042735042735" y="120.3663967611336" stroke="none" fill="#9510c2" rx="2.7105263157894735" transform="rotate(45, 88.88888888888889, 123.07692307692308)"></rect><rect width="5.421052631578947" height="30.76923076923077" x="86.1783625730994" y="107.6923076923077" stroke="none" fill="#9510c2" rx="2.7105263157894735" transform="rotate(45, 88.88888888888889, 123.07692307692308)"></rect><rect width="30.76923076923077" height="5.421052631578947" x="162.39316239316238" y="120.3663967611336" stroke="none" fill="#e90064" rx="2.7105263157894735" transform="rotate(45, 177.77777777777777, 123.07692307692308)"></rect><rect width="5.421052631578947" height="30.76923076923077" x="175.0672514619883" y="107.6923076923077" stroke="none" fill="#e90064" rx="2.7105263157894735" transform="rotate(45, 177.77777777777777, 123.07692307692308)"></rect><rect width="30.76923076923077" height="5.421052631578947" x="251.28205128205124" y="120.3663967611336" stroke="none" fill="#9510c2" rx="2.7105263157894735" transform="rotate(45, 266.66666666666663, 123.07692307692308)"></rect><rect width="5.421052631578947" height="30.76923076923077" x="263.95614035087715" y="107.6923076923077" stroke="none" fill="#9510c2" rx="2.7105263157894735" transform="rotate(45, 266.66666666666663, 123.07692307692308)"></rect><rect width="30.76923076923077" height="5.421052631578947" x="340.1709401709402" y="120.3663967611336" stroke="none" fill="#e90064" rx="2.7105263157894735" transform="rotate(45, 355.55555555555554, 123.07692307692308)"></rect><rect width="5.421052631578947" height="30.76923076923077" x="352.84502923976606" y="107.6923076923077" stroke="none" fill="#e90064" rx="2.7105263157894735" transform="rotate(45, 355.55555555555554, 123.07692307692308)"></rect><rect width="30.76923076923077" height="5.421052631578947" x="429.0598290598291" y="120.3663967611336" stroke="none" fill="#9510c2" rx="2.7105263157894735" transform="rotate(45, 444.44444444444446, 123.07692307692308)"></rect><rect width="5.421052631578947" height="30.76923076923077" x="441.733918128655" y="107.6923076923077" stroke="none" fill="#9510c2" rx="2.7105263157894735" transform="rotate(45, 444.44444444444446, 123.07692307692308)"></rect><rect width="30.76923076923077" height="5.421052631578947" x="517.948717948718" y="120.3663967611336" stroke="none" fill="#e90064" rx="2.7105263157894735" transform="rotate(45, 533.3333333333334, 123.07692307692308)"></rect><rect width="5.421052631578947" height="30.76923076923077" x="530.6228070175439" y="107.6923076923077" stroke="none" fill="#e90064" rx="2.7105263157894735" transform="rotate(45, 533.3333333333334, 123.07692307692308)"></rect><rect width="30.76923076923077" height="5.421052631578947" x="606.8376068376069" y="120.3663967611336" stroke="none" fill="#9510c2" rx="2.7105263157894735" transform="rotate(45, 622.2222222222223, 123.07692307692308)"></rect><rect width="5.421052631578947" height="30.76923076923077" x="619.5116959064328" y="107.6923076923077" stroke="none" fill="#9510c2" rx="2.7105263157894735" transform="rotate(45, 622.2222222222223, 123.07692307692308)"></rect><rect width="30.76923076923077" height="5.421052631578947" x="695.7264957264958" y="120.3663967611336" stroke="none" fill="#e90064" rx="2.7105263157894735" transform="rotate(45, 711.1111111111112, 123.07692307692308)"></rect><rect width="5.421052631578947" height="30.76923076923077" x="708.4005847953217" y="107.6923076923077" stroke="none" fill="#e90064" rx="2.7105263157894735" transform="rotate(45, 711.1111111111112, 123.07692307692308)"></rect><rect width="30.76923076923077" height="5.421052631578947" x="784.6153846153848" y="120.3663967611336" stroke="none" fill="#9510c2" rx="2.7105263157894735" transform="rotate(45, 800.0000000000001, 123.07692307692308)"></rect><rect width="5.421052631578947" height="30.76923076923077" x="797.2894736842106" y="107.6923076923077" stroke="none" fill="#9510c2" rx="2.7105263157894735" transform="rotate(45, 800.0000000000001, 123.07692307692308)"></rect><rect width="30.76923076923077" height="5.421052631578947" x="-15.384615384615385" y="181.90485829959513" stroke="none" fill="#e90064" rx="2.7105263157894735" transform="rotate(45, 0, 184.6153846153846)"></rect><rect width="5.421052631578947" height="30.76923076923077" x="-2.7105263157894735" y="169.23076923076923" stroke="none" fill="#e90064" rx="2.7105263157894735" transform="rotate(45, 0, 184.6153846153846)"></rect><rect width="30.76923076923077" height="5.421052631578947" x="73.5042735042735" y="181.90485829959513" stroke="none" fill="#9510c2" rx="2.7105263157894735" transform="rotate(45, 88.88888888888889, 184.6153846153846)"></rect><rect width="5.421052631578947" height="30.76923076923077" x="86.1783625730994" y="169.23076923076923" stroke="none" fill="#9510c2" rx="2.7105263157894735" transform="rotate(45, 88.88888888888889, 184.6153846153846)"></rect><rect width="30.76923076923077" height="5.421052631578947" x="162.39316239316238" y="181.90485829959513" stroke="none" fill="#e90064" rx="2.7105263157894735" transform="rotate(45, 177.77777777777777, 184.6153846153846)"></rect><rect width="5.421052631578947" height="30.76923076923077" x="175.0672514619883" y="169.23076923076923" stroke="none" fill="#e90064" rx="2.7105263157894735" transform="rotate(45, 177.77777777777777, 184.6153846153846)"></rect><rect width="30.76923076923077" height="5.421052631578947" x="251.28205128205124" y="181.90485829959513" stroke="none" fill="#9510c2" rx="2.7105263157894735" transform="rotate(45, 266.66666666666663, 184.6153846153846)"></rect><rect width="5.421052631578947" height="30.76923076923077" x="263.95614035087715" y="169.23076923076923" stroke="none" fill="#9510c2" rx="2.7105263157894735" transform="rotate(45, 266.66666666666663, 184.6153846153846)"></rect><rect width="30.76923076923077" height="5.421052631578947" x="340.1709401709402" y="181.90485829959513" stroke="none" fill="#e90064" rx="2.7105263157894735" transform="rotate(45, 355.55555555555554, 184.6153846153846)"></rect><rect width="5.421052631578947" height="30.76923076923077" x="352.84502923976606" y="169.23076923076923" stroke="none" fill="#e90064" rx="2.7105263157894735" transform="rotate(45, 355.55555555555554, 184.6153846153846)"></rect><rect width="30.76923076923077" height="5.421052631578947" x="429.0598290598291" y="181.90485829959513" stroke="none" fill="#9510c2" rx="2.7105263157894735" transform="rotate(45, 444.44444444444446, 184.6153846153846)"></rect><rect width="5.421052631578947" height="30.76923076923077" x="441.733918128655" y="169.23076923076923" stroke="none" fill="#9510c2" rx="2.7105263157894735" transform="rotate(45, 444.44444444444446, 184.6153846153846)"></rect><rect width="30.76923076923077" height="5.421052631578947" x="517.948717948718" y="181.90485829959513" stroke="none" fill="#e90064" rx="2.7105263157894735" transform="rotate(45, 533.3333333333334, 184.6153846153846)"></rect><rect width="5.421052631578947" height="30.76923076923077" x="530.6228070175439" y="169.23076923076923" stroke="none" fill="#e90064" rx="2.7105263157894735" transform="rotate(45, 533.3333333333334, 184.6153846153846)"></rect><rect width="30.76923076923077" height="5.421052631578947" x="606.8376068376069" y="181.90485829959513" stroke="none" fill="#9510c2" rx="2.7105263157894735" transform="rotate(45, 622.2222222222223, 184.6153846153846)"></rect><rect width="5.421052631578947" height="30.76923076923077" x="619.5116959064328" y="169.23076923076923" stroke="none" fill="#9510c2" rx="2.7105263157894735" transform="rotate(45, 622.2222222222223, 184.6153846153846)"></rect><rect width="30.76923076923077" height="5.421052631578947" x="695.7264957264958" y="181.90485829959513" stroke="none" fill="#e90064" rx="2.7105263157894735" transform="rotate(45, 711.1111111111112, 184.6153846153846)"></rect><rect width="5.421052631578947" height="30.76923076923077" x="708.4005847953217" y="169.23076923076923" stroke="none" fill="#e90064" rx="2.7105263157894735" transform="rotate(45, 711.1111111111112, 184.6153846153846)"></rect><rect width="30.76923076923077" height="5.421052631578947" x="784.6153846153848" y="181.90485829959513" stroke="none" fill="#9510c2" rx="2.7105263157894735" transform="rotate(45, 800.0000000000001, 184.6153846153846)"></rect><rect width="5.421052631578947" height="30.76923076923077" x="797.2894736842106" y="169.23076923076923" stroke="none" fill="#9510c2" rx="2.7105263157894735" transform="rotate(45, 800.0000000000001, 184.6153846153846)"></rect><rect width="30.76923076923077" height="5.421052631578947" x="-15.384615384615385" y="243.44331983805668" stroke="none" fill="#e90064" rx="2.7105263157894735" transform="rotate(45, 0, 246.15384615384616)"></rect><rect width="5.421052631578947" height="30.76923076923077" x="-2.7105263157894735" y="230.76923076923077" stroke="none" fill="#e90064" rx="2.7105263157894735" transform="rotate(45, 0, 246.15384615384616)"></rect><rect width="30.76923076923077" height="5.421052631578947" x="73.5042735042735" y="243.44331983805668" stroke="none" fill="#9510c2" rx="2.7105263157894735" transform="rotate(45, 88.88888888888889, 246.15384615384616)"></rect><rect width="5.421052631578947" height="30.76923076923077" x="86.1783625730994" y="230.76923076923077" stroke="none" fill="#9510c2" rx="2.7105263157894735" transform="rotate(45, 88.88888888888889, 246.15384615384616)"></rect><rect width="30.76923076923077" height="5.421052631578947" x="162.39316239316238" y="243.44331983805668" stroke="none" fill="#e90064" rx="2.7105263157894735" transform="rotate(45, 177.77777777777777, 246.15384615384616)"></rect><rect width="5.421052631578947" height="30.76923076923077" x="175.0672514619883" y="230.76923076923077" stroke="none" fill="#e90064" rx="2.7105263157894735" transform="rotate(45, 177.77777777777777, 246.15384615384616)"></rect><rect width="30.76923076923077" height="5.421052631578947" x="251.28205128205124" y="243.44331983805668" stroke="none" fill="#9510c2" rx="2.7105263157894735" transform="rotate(45, 266.66666666666663, 246.15384615384616)"></rect><rect width="5.421052631578947" height="30.76923076923077" x="263.95614035087715" y="230.76923076923077" stroke="none" fill="#9510c2" rx="2.7105263157894735" transform="rotate(45, 266.66666666666663, 246.15384615384616)"></rect><rect width="30.76923076923077" height="5.421052631578947" x="340.1709401709402" y="243.44331983805668" stroke="none" fill="#e90064" rx="2.7105263157894735" transform="rotate(45, 355.55555555555554, 246.15384615384616)"></rect><rect width="5.421052631578947" height="30.76923076923077" x="352.84502923976606" y="230.76923076923077" stroke="none" fill="#e90064" rx="2.7105263157894735" transform="rotate(45, 355.55555555555554, 246.15384615384616)"></rect><rect width="30.76923076923077" height="5.421052631578947" x="429.0598290598291" y="243.44331983805668" stroke="none" fill="#9510c2" rx="2.7105263157894735" transform="rotate(45, 444.44444444444446, 246.15384615384616)"></rect><rect width="5.421052631578947" height="30.76923076923077" x="441.733918128655" y="230.76923076923077" stroke="none" fill="#9510c2" rx="2.7105263157894735" transform="rotate(45, 444.44444444444446, 246.15384615384616)"></rect><rect width="30.76923076923077" height="5.421052631578947" x="517.948717948718" y="243.44331983805668" stroke="none" fill="#e90064" rx="2.7105263157894735" transform="rotate(45, 533.3333333333334, 246.15384615384616)"></rect><rect width="5.421052631578947" height="30.76923076923077" x="530.6228070175439" y="230.76923076923077" stroke="none" fill="#e90064" rx="2.7105263157894735" transform="rotate(45, 533.3333333333334, 246.15384615384616)"></rect><rect width="30.76923076923077" height="5.421052631578947" x="606.8376068376069" y="243.44331983805668" stroke="none" fill="#9510c2" rx="2.7105263157894735" transform="rotate(45, 622.2222222222223, 246.15384615384616)"></rect><rect width="5.421052631578947" height="30.76923076923077" x="619.5116959064328" y="230.76923076923077" stroke="none" fill="#9510c2" rx="2.7105263157894735" transform="rotate(45, 622.2222222222223, 246.15384615384616)"></rect><rect width="30.76923076923077" height="5.421052631578947" x="695.7264957264958" y="243.44331983805668" stroke="none" fill="#e90064" rx="2.7105263157894735" transform="rotate(45, 711.1111111111112, 246.15384615384616)"></rect><rect width="5.421052631578947" height="30.76923076923077" x="708.4005847953217" y="230.76923076923077" stroke="none" fill="#e90064" rx="2.7105263157894735" transform="rotate(45, 711.1111111111112, 246.15384615384616)"></rect><rect width="30.76923076923077" height="5.421052631578947" x="784.6153846153848" y="243.44331983805668" stroke="none" fill="#9510c2" rx="2.7105263157894735" transform="rotate(45, 800.0000000000001, 246.15384615384616)"></rect><rect width="5.421052631578947" height="30.76923076923077" x="797.2894736842106" y="230.76923076923077" stroke="none" fill="#9510c2" rx="2.7105263157894735" transform="rotate(45, 800.0000000000001, 246.15384615384616)"></rect><rect width="30.76923076923077" height="5.421052631578947" x="-15.384615384615385" y="304.9817813765182" stroke="none" fill="#e90064" rx="2.7105263157894735" transform="rotate(45, 0, 307.6923076923077)"></rect><rect width="5.421052631578947" height="30.76923076923077" x="-2.7105263157894735" y="292.3076923076923" stroke="none" fill="#e90064" rx="2.7105263157894735" transform="rotate(45, 0, 307.6923076923077)"></rect><rect width="30.76923076923077" height="5.421052631578947" x="73.5042735042735" y="304.9817813765182" stroke="none" fill="#9510c2" rx="2.7105263157894735" transform="rotate(45, 88.88888888888889, 307.6923076923077)"></rect><rect width="5.421052631578947" height="30.76923076923077" x="86.1783625730994" y="292.3076923076923" stroke="none" fill="#9510c2" rx="2.7105263157894735" transform="rotate(45, 88.88888888888889, 307.6923076923077)"></rect><rect width="30.76923076923077" height="5.421052631578947" x="162.39316239316238" y="304.9817813765182" stroke="none" fill="#e90064" rx="2.7105263157894735" transform="rotate(45, 177.77777777777777, 307.6923076923077)"></rect><rect width="5.421052631578947" height="30.76923076923077" x="175.0672514619883" y="292.3076923076923" stroke="none" fill="#e90064" rx="2.7105263157894735" transform="rotate(45, 177.77777777777777, 307.6923076923077)"></rect><rect width="30.76923076923077" height="5.421052631578947" x="251.28205128205124" y="304.9817813765182" stroke="none" fill="#9510c2" rx="2.7105263157894735" transform="rotate(45, 266.66666666666663, 307.6923076923077)"></rect><rect width="5.421052631578947" height="30.76923076923077" x="263.95614035087715" y="292.3076923076923" stroke="none" fill="#9510c2" rx="2.7105263157894735" transform="rotate(45, 266.66666666666663, 307.6923076923077)"></rect><rect width="30.76923076923077" height="5.421052631578947" x="340.1709401709402" y="304.9817813765182" stroke="none" fill="#e90064" rx="2.7105263157894735" transform="rotate(45, 355.55555555555554, 307.6923076923077)"></rect><rect width="5.421052631578947" height="30.76923076923077" x="352.84502923976606" y="292.3076923076923" stroke="none" fill="#e90064" rx="2.7105263157894735" transform="rotate(45, 355.55555555555554, 307.6923076923077)"></rect><rect width="30.76923076923077" height="5.421052631578947" x="429.0598290598291" y="304.9817813765182" stroke="none" fill="#9510c2" rx="2.7105263157894735" transform="rotate(45, 444.44444444444446, 307.6923076923077)"></rect><rect width="5.421052631578947" height="30.76923076923077" x="441.733918128655" y="292.3076923076923" stroke="none" fill="#9510c2" rx="2.7105263157894735" transform="rotate(45, 444.44444444444446, 307.6923076923077)"></rect><rect width="30.76923076923077" height="5.421052631578947" x="517.948717948718" y="304.9817813765182" stroke="none" fill="#e90064" rx="2.7105263157894735" transform="rotate(45, 533.3333333333334, 307.6923076923077)"></rect><rect width="5.421052631578947" height="30.76923076923077" x="530.6228070175439" y="292.3076923076923" stroke="none" fill="#e90064" rx="2.7105263157894735" transform="rotate(45, 533.3333333333334, 307.6923076923077)"></rect><rect width="30.76923076923077" height="5.421052631578947" x="606.8376068376069" y="304.9817813765182" stroke="none" fill="#9510c2" rx="2.7105263157894735" transform="rotate(45, 622.2222222222223, 307.6923076923077)"></rect><rect width="5.421052631578947" height="30.76923076923077" x="619.5116959064328" y="292.3076923076923" stroke="none" fill="#9510c2" rx="2.7105263157894735" transform="rotate(45, 622.2222222222223, 307.6923076923077)"></rect><rect width="30.76923076923077" height="5.421052631578947" x="695.7264957264958" y="304.9817813765182" stroke="none" fill="#e90064" rx="2.7105263157894735" transform="rotate(45, 711.1111111111112, 307.6923076923077)"></rect><rect width="5.421052631578947" height="30.76923076923077" x="708.4005847953217" y="292.3076923076923" stroke="none" fill="#e90064" rx="2.7105263157894735" transform="rotate(45, 711.1111111111112, 307.6923076923077)"></rect><rect width="30.76923076923077" height="5.421052631578947" x="784.6153846153848" y="304.9817813765182" stroke="none" fill="#9510c2" rx="2.7105263157894735" transform="rotate(45, 800.0000000000001, 307.6923076923077)"></rect><rect width="5.421052631578947" height="30.76923076923077" x="797.2894736842106" y="292.3076923076923" stroke="none" fill="#9510c2" rx="2.7105263157894735" transform="rotate(45, 800.0000000000001, 307.6923076923077)"></rect><rect width="30.76923076923077" height="5.421052631578947" x="-15.384615384615385" y="366.52024291497975" stroke="none" fill="#e90064" rx="2.7105263157894735" transform="rotate(45, 0, 369.2307692307692)"></rect><rect width="5.421052631578947" height="30.76923076923077" x="-2.7105263157894735" y="353.84615384615387" stroke="none" fill="#e90064" rx="2.7105263157894735" transform="rotate(45, 0, 369.2307692307692)"></rect><rect width="30.76923076923077" height="5.421052631578947" x="73.5042735042735" y="366.52024291497975" stroke="none" fill="#9510c2" rx="2.7105263157894735" transform="rotate(45, 88.88888888888889, 369.2307692307692)"></rect><rect width="5.421052631578947" height="30.76923076923077" x="86.1783625730994" y="353.84615384615387" stroke="none" fill="#9510c2" rx="2.7105263157894735" transform="rotate(45, 88.88888888888889, 369.2307692307692)"></rect><rect width="30.76923076923077" height="5.421052631578947" x="162.39316239316238" y="366.52024291497975" stroke="none" fill="#e90064" rx="2.7105263157894735" transform="rotate(45, 177.77777777777777, 369.2307692307692)"></rect><rect width="5.421052631578947" height="30.76923076923077" x="175.0672514619883" y="353.84615384615387" stroke="none" fill="#e90064" rx="2.7105263157894735" transform="rotate(45, 177.77777777777777, 369.2307692307692)"></rect><rect width="30.76923076923077" height="5.421052631578947" x="251.28205128205124" y="366.52024291497975" stroke="none" fill="#9510c2" rx="2.7105263157894735" transform="rotate(45, 266.66666666666663, 369.2307692307692)"></rect><rect width="5.421052631578947" height="30.76923076923077" x="263.95614035087715" y="353.84615384615387" stroke="none" fill="#9510c2" rx="2.7105263157894735" transform="rotate(45, 266.66666666666663, 369.2307692307692)"></rect><rect width="30.76923076923077" height="5.421052631578947" x="340.1709401709402" y="366.52024291497975" stroke="none" fill="#e90064" rx="2.7105263157894735" transform="rotate(45, 355.55555555555554, 369.2307692307692)"></rect><rect width="5.421052631578947" height="30.76923076923077" x="352.84502923976606" y="353.84615384615387" stroke="none" fill="#e90064" rx="2.7105263157894735" transform="rotate(45, 355.55555555555554, 369.2307692307692)"></rect><rect width="30.76923076923077" height="5.421052631578947" x="429.0598290598291" y="366.52024291497975" stroke="none" fill="#9510c2" rx="2.7105263157894735" transform="rotate(45, 444.44444444444446, 369.2307692307692)"></rect><rect width="5.421052631578947" height="30.76923076923077" x="441.733918128655" y="353.84615384615387" stroke="none" fill="#9510c2" rx="2.7105263157894735" transform="rotate(45, 444.44444444444446, 369.2307692307692)"></rect><rect width="30.76923076923077" height="5.421052631578947" x="517.948717948718" y="366.52024291497975" stroke="none" fill="#e90064" rx="2.7105263157894735" transform="rotate(45, 533.3333333333334, 369.2307692307692)"></rect><rect width="5.421052631578947" height="30.76923076923077" x="530.6228070175439" y="353.84615384615387" stroke="none" fill="#e90064" rx="2.7105263157894735" transform="rotate(45, 533.3333333333334, 369.2307692307692)"></rect><rect width="30.76923076923077" height="5.421052631578947" x="606.8376068376069" y="366.52024291497975" stroke="none" fill="#9510c2" rx="2.7105263157894735" transform="rotate(45, 622.2222222222223, 369.2307692307692)"></rect><rect width="5.421052631578947" height="30.76923076923077" x="619.5116959064328" y="353.84615384615387" stroke="none" fill="#9510c2" rx="2.7105263157894735" transform="rotate(45, 622.2222222222223, 369.2307692307692)"></rect><rect width="30.76923076923077" height="5.421052631578947" x="695.7264957264958" y="366.52024291497975" stroke="none" fill="#e90064" rx="2.7105263157894735" transform="rotate(45, 711.1111111111112, 369.2307692307692)"></rect><rect width="5.421052631578947" height="30.76923076923077" x="708.4005847953217" y="353.84615384615387" stroke="none" fill="#e90064" rx="2.7105263157894735" transform="rotate(45, 711.1111111111112, 369.2307692307692)"></rect><rect width="30.76923076923077" height="5.421052631578947" x="784.6153846153848" y="366.52024291497975" stroke="none" fill="#9510c2" rx="2.7105263157894735" transform="rotate(45, 800.0000000000001, 369.2307692307692)"></rect><rect width="5.421052631578947" height="30.76923076923077" x="797.2894736842106" y="353.84615384615387" stroke="none" fill="#9510c2" rx="2.7105263157894735" transform="rotate(45, 800.0000000000001, 369.2307692307692)"></rect><rect width="30.76923076923077" height="5.421052631578947" x="-15.384615384615385" y="428.0587044534413" stroke="none" fill="#e90064" rx="2.7105263157894735" transform="rotate(45, 0, 430.7692307692308)"></rect><rect width="5.421052631578947" height="30.76923076923077" x="-2.7105263157894735" y="415.3846153846154" stroke="none" fill="#e90064" rx="2.7105263157894735" transform="rotate(45, 0, 430.7692307692308)"></rect><rect width="30.76923076923077" height="5.421052631578947" x="73.5042735042735" y="428.0587044534413" stroke="none" fill="#9510c2" rx="2.7105263157894735" transform="rotate(45, 88.88888888888889, 430.7692307692308)"></rect><rect width="5.421052631578947" height="30.76923076923077" x="86.1783625730994" y="415.3846153846154" stroke="none" fill="#9510c2" rx="2.7105263157894735" transform="rotate(45, 88.88888888888889, 430.7692307692308)"></rect><rect width="30.76923076923077" height="5.421052631578947" x="162.39316239316238" y="428.0587044534413" stroke="none" fill="#e90064" rx="2.7105263157894735" transform="rotate(45, 177.77777777777777, 430.7692307692308)"></rect><rect width="5.421052631578947" height="30.76923076923077" x="175.0672514619883" y="415.3846153846154" stroke="none" fill="#e90064" rx="2.7105263157894735" transform="rotate(45, 177.77777777777777, 430.7692307692308)"></rect><rect width="30.76923076923077" height="5.421052631578947" x="251.28205128205124" y="428.0587044534413" stroke="none" fill="#9510c2" rx="2.7105263157894735" transform="rotate(45, 266.66666666666663, 430.7692307692308)"></rect><rect width="5.421052631578947" height="30.76923076923077" x="263.95614035087715" y="415.3846153846154" stroke="none" fill="#9510c2" rx="2.7105263157894735" transform="rotate(45, 266.66666666666663, 430.7692307692308)"></rect><rect width="30.76923076923077" height="5.421052631578947" x="340.1709401709402" y="428.0587044534413" stroke="none" fill="#e90064" rx="2.7105263157894735" transform="rotate(45, 355.55555555555554, 430.7692307692308)"></rect><rect width="5.421052631578947" height="30.76923076923077" x="352.84502923976606" y="415.3846153846154" stroke="none" fill="#e90064" rx="2.7105263157894735" transform="rotate(45, 355.55555555555554, 430.7692307692308)"></rect><rect width="30.76923076923077" height="5.421052631578947" x="429.0598290598291" y="428.0587044534413" stroke="none" fill="#9510c2" rx="2.7105263157894735" transform="rotate(45, 444.44444444444446, 430.7692307692308)"></rect><rect width="5.421052631578947" height="30.76923076923077" x="441.733918128655" y="415.3846153846154" stroke="none" fill="#9510c2" rx="2.7105263157894735" transform="rotate(45, 444.44444444444446, 430.7692307692308)"></rect><rect width="30.76923076923077" height="5.421052631578947" x="517.948717948718" y="428.0587044534413" stroke="none" fill="#e90064" rx="2.7105263157894735" transform="rotate(45, 533.3333333333334, 430.7692307692308)"></rect><rect width="5.421052631578947" height="30.76923076923077" x="530.6228070175439" y="415.3846153846154" stroke="none" fill="#e90064" rx="2.7105263157894735" transform="rotate(45, 533.3333333333334, 430.7692307692308)"></rect><rect width="30.76923076923077" height="5.421052631578947" x="606.8376068376069" y="428.0587044534413" stroke="none" fill="#9510c2" rx="2.7105263157894735" transform="rotate(45, 622.2222222222223, 430.7692307692308)"></rect><rect width="5.421052631578947" height="30.76923076923077" x="619.5116959064328" y="415.3846153846154" stroke="none" fill="#9510c2" rx="2.7105263157894735" transform="rotate(45, 622.2222222222223, 430.7692307692308)"></rect><rect width="30.76923076923077" height="5.421052631578947" x="695.7264957264958" y="428.0587044534413" stroke="none" fill="#e90064" rx="2.7105263157894735" transform="rotate(45, 711.1111111111112, 430.7692307692308)"></rect><rect width="5.421052631578947" height="30.76923076923077" x="708.4005847953217" y="415.3846153846154" stroke="none" fill="#e90064" rx="2.7105263157894735" transform="rotate(45, 711.1111111111112, 430.7692307692308)"></rect><rect width="30.76923076923077" height="5.421052631578947" x="784.6153846153848" y="428.0587044534413" stroke="none" fill="#9510c2" rx="2.7105263157894735" transform="rotate(45, 800.0000000000001, 430.7692307692308)"></rect><rect width="5.421052631578947" height="30.76923076923077" x="797.2894736842106" y="415.3846153846154" stroke="none" fill="#9510c2" rx="2.7105263157894735" transform="rotate(45, 800.0000000000001, 430.7692307692308)"></rect><rect width="30.76923076923077" height="5.421052631578947" x="-15.384615384615385" y="489.59716599190284" stroke="none" fill="#e90064" rx="2.7105263157894735" transform="rotate(45, 0, 492.3076923076923)"></rect><rect width="5.421052631578947" height="30.76923076923077" x="-2.7105263157894735" y="476.92307692307696" stroke="none" fill="#e90064" rx="2.7105263157894735" transform="rotate(45, 0, 492.3076923076923)"></rect><rect width="30.76923076923077" height="5.421052631578947" x="73.5042735042735" y="489.59716599190284" stroke="none" fill="#9510c2" rx="2.7105263157894735" transform="rotate(45, 88.88888888888889, 492.3076923076923)"></rect><rect width="5.421052631578947" height="30.76923076923077" x="86.1783625730994" y="476.92307692307696" stroke="none" fill="#9510c2" rx="2.7105263157894735" transform="rotate(45, 88.88888888888889, 492.3076923076923)"></rect><rect width="30.76923076923077" height="5.421052631578947" x="162.39316239316238" y="489.59716599190284" stroke="none" fill="#e90064" rx="2.7105263157894735" transform="rotate(45, 177.77777777777777, 492.3076923076923)"></rect><rect width="5.421052631578947" height="30.76923076923077" x="175.0672514619883" y="476.92307692307696" stroke="none" fill="#e90064" rx="2.7105263157894735" transform="rotate(45, 177.77777777777777, 492.3076923076923)"></rect><rect width="30.76923076923077" height="5.421052631578947" x="251.28205128205124" y="489.59716599190284" stroke="none" fill="#9510c2" rx="2.7105263157894735" transform="rotate(45, 266.66666666666663, 492.3076923076923)"></rect><rect width="5.421052631578947" height="30.76923076923077" x="263.95614035087715" y="476.92307692307696" stroke="none" fill="#9510c2" rx="2.7105263157894735" transform="rotate(45, 266.66666666666663, 492.3076923076923)"></rect><rect width="30.76923076923077" height="5.421052631578947" x="340.1709401709402" y="489.59716599190284" stroke="none" fill="#e90064" rx="2.7105263157894735" transform="rotate(45, 355.55555555555554, 492.3076923076923)"></rect><rect width="5.421052631578947" height="30.76923076923077" x="352.84502923976606" y="476.92307692307696" stroke="none" fill="#e90064" rx="2.7105263157894735" transform="rotate(45, 355.55555555555554, 492.3076923076923)"></rect><rect width="30.76923076923077" height="5.421052631578947" x="429.0598290598291" y="489.59716599190284" stroke="none" fill="#9510c2" rx="2.7105263157894735" transform="rotate(45, 444.44444444444446, 492.3076923076923)"></rect><rect width="5.421052631578947" height="30.76923076923077" x="441.733918128655" y="476.92307692307696" stroke="none" fill="#9510c2" rx="2.7105263157894735" transform="rotate(45, 444.44444444444446, 492.3076923076923)"></rect><rect width="30.76923076923077" height="5.421052631578947" x="517.948717948718" y="489.59716599190284" stroke="none" fill="#e90064" rx="2.7105263157894735" transform="rotate(45, 533.3333333333334, 492.3076923076923)"></rect><rect width="5.421052631578947" height="30.76923076923077" x="530.6228070175439" y="476.92307692307696" stroke="none" fill="#e90064" rx="2.7105263157894735" transform="rotate(45, 533.3333333333334, 492.3076923076923)"></rect><rect width="30.76923076923077" height="5.421052631578947" x="606.8376068376069" y="489.59716599190284" stroke="none" fill="#9510c2" rx="2.7105263157894735" transform="rotate(45, 622.2222222222223, 492.3076923076923)"></rect><rect width="5.421052631578947" height="30.76923076923077" x="619.5116959064328" y="476.92307692307696" stroke="none" fill="#9510c2" rx="2.7105263157894735" transform="rotate(45, 622.2222222222223, 492.3076923076923)"></rect><rect width="30.76923076923077" height="5.421052631578947" x="695.7264957264958" y="489.59716599190284" stroke="none" fill="#e90064" rx="2.7105263157894735" transform="rotate(45, 711.1111111111112, 492.3076923076923)"></rect><rect width="5.421052631578947" height="30.76923076923077" x="708.4005847953217" y="476.92307692307696" stroke="none" fill="#e90064" rx="2.7105263157894735" transform="rotate(45, 711.1111111111112, 492.3076923076923)"></rect><rect width="30.76923076923077" height="5.421052631578947" x="784.6153846153848" y="489.59716599190284" stroke="none" fill="#9510c2" rx="2.7105263157894735" transform="rotate(45, 800.0000000000001, 492.3076923076923)"></rect><rect width="5.421052631578947" height="30.76923076923077" x="797.2894736842106" y="476.92307692307696" stroke="none" fill="#9510c2" rx="2.7105263157894735" transform="rotate(45, 800.0000000000001, 492.3076923076923)"></rect><rect width="30.76923076923077" height="5.421052631578947" x="-15.384615384615385" y="551.1356275303643" stroke="none" fill="#e90064" rx="2.7105263157894735" transform="rotate(45, 0, 553.8461538461538)"></rect><rect width="5.421052631578947" height="30.76923076923077" x="-2.7105263157894735" y="538.4615384615385" stroke="none" fill="#e90064" rx="2.7105263157894735" transform="rotate(45, 0, 553.8461538461538)"></rect><rect width="30.76923076923077" height="5.421052631578947" x="73.5042735042735" y="551.1356275303643" stroke="none" fill="#9510c2" rx="2.7105263157894735" transform="rotate(45, 88.88888888888889, 553.8461538461538)"></rect><rect width="5.421052631578947" height="30.76923076923077" x="86.1783625730994" y="538.4615384615385" stroke="none" fill="#9510c2" rx="2.7105263157894735" transform="rotate(45, 88.88888888888889, 553.8461538461538)"></rect><rect width="30.76923076923077" height="5.421052631578947" x="162.39316239316238" y="551.1356275303643" stroke="none" fill="#e90064" rx="2.7105263157894735" transform="rotate(45, 177.77777777777777, 553.8461538461538)"></rect><rect width="5.421052631578947" height="30.76923076923077" x="175.0672514619883" y="538.4615384615385" stroke="none" fill="#e90064" rx="2.7105263157894735" transform="rotate(45, 177.77777777777777, 553.8461538461538)"></rect><rect width="30.76923076923077" height="5.421052631578947" x="251.28205128205124" y="551.1356275303643" stroke="none" fill="#9510c2" rx="2.7105263157894735" transform="rotate(45, 266.66666666666663, 553.8461538461538)"></rect><rect width="5.421052631578947" height="30.76923076923077" x="263.95614035087715" y="538.4615384615385" stroke="none" fill="#9510c2" rx="2.7105263157894735" transform="rotate(45, 266.66666666666663, 553.8461538461538)"></rect><rect width="30.76923076923077" height="5.421052631578947" x="340.1709401709402" y="551.1356275303643" stroke="none" fill="#e90064" rx="2.7105263157894735" transform="rotate(45, 355.55555555555554, 553.8461538461538)"></rect><rect width="5.421052631578947" height="30.76923076923077" x="352.84502923976606" y="538.4615384615385" stroke="none" fill="#e90064" rx="2.7105263157894735" transform="rotate(45, 355.55555555555554, 553.8461538461538)"></rect><rect width="30.76923076923077" height="5.421052631578947" x="429.0598290598291" y="551.1356275303643" stroke="none" fill="#9510c2" rx="2.7105263157894735" transform="rotate(45, 444.44444444444446, 553.8461538461538)"></rect><rect width="5.421052631578947" height="30.76923076923077" x="441.733918128655" y="538.4615384615385" stroke="none" fill="#9510c2" rx="2.7105263157894735" transform="rotate(45, 444.44444444444446, 553.8461538461538)"></rect><rect width="30.76923076923077" height="5.421052631578947" x="517.948717948718" y="551.1356275303643" stroke="none" fill="#e90064" rx="2.7105263157894735" transform="rotate(45, 533.3333333333334, 553.8461538461538)"></rect><rect width="5.421052631578947" height="30.76923076923077" x="530.6228070175439" y="538.4615384615385" stroke="none" fill="#e90064" rx="2.7105263157894735" transform="rotate(45, 533.3333333333334, 553.8461538461538)"></rect><rect width="30.76923076923077" height="5.421052631578947" x="606.8376068376069" y="551.1356275303643" stroke="none" fill="#9510c2" rx="2.7105263157894735" transform="rotate(45, 622.2222222222223, 553.8461538461538)"></rect><rect width="5.421052631578947" height="30.76923076923077" x="619.5116959064328" y="538.4615384615385" stroke="none" fill="#9510c2" rx="2.7105263157894735" transform="rotate(45, 622.2222222222223, 553.8461538461538)"></rect><rect width="30.76923076923077" height="5.421052631578947" x="695.7264957264958" y="551.1356275303643" stroke="none" fill="#e90064" rx="2.7105263157894735" transform="rotate(45, 711.1111111111112, 553.8461538461538)"></rect><rect width="5.421052631578947" height="30.76923076923077" x="708.4005847953217" y="538.4615384615385" stroke="none" fill="#e90064" rx="2.7105263157894735" transform="rotate(45, 711.1111111111112, 553.8461538461538)"></rect><rect width="30.76923076923077" height="5.421052631578947" x="784.6153846153848" y="551.1356275303643" stroke="none" fill="#9510c2" rx="2.7105263157894735" transform="rotate(45, 800.0000000000001, 553.8461538461538)"></rect><rect width="5.421052631578947" height="30.76923076923077" x="797.2894736842106" y="538.4615384615385" stroke="none" fill="#9510c2" rx="2.7105263157894735" transform="rotate(45, 800.0000000000001, 553.8461538461538)"></rect><rect width="30.76923076923077" height="5.421052631578947" x="-15.384615384615385" y="612.6740890688259" stroke="none" fill="#e90064" rx="2.7105263157894735" transform="rotate(45, 0, 615.3846153846154)"></rect><rect width="5.421052631578947" height="30.76923076923077" x="-2.7105263157894735" y="600" stroke="none" fill="#e90064" rx="2.7105263157894735" transform="rotate(45, 0, 615.3846153846154)"></rect><rect width="30.76923076923077" height="5.421052631578947" x="73.5042735042735" y="612.6740890688259" stroke="none" fill="#9510c2" rx="2.7105263157894735" transform="rotate(45, 88.88888888888889, 615.3846153846154)"></rect><rect width="5.421052631578947" height="30.76923076923077" x="86.1783625730994" y="600" stroke="none" fill="#9510c2" rx="2.7105263157894735" transform="rotate(45, 88.88888888888889, 615.3846153846154)"></rect><rect width="30.76923076923077" height="5.421052631578947" x="162.39316239316238" y="612.6740890688259" stroke="none" fill="#e90064" rx="2.7105263157894735" transform="rotate(45, 177.77777777777777, 615.3846153846154)"></rect><rect width="5.421052631578947" height="30.76923076923077" x="175.0672514619883" y="600" stroke="none" fill="#e90064" rx="2.7105263157894735" transform="rotate(45, 177.77777777777777, 615.3846153846154)"></rect><rect width="30.76923076923077" height="5.421052631578947" x="251.28205128205124" y="612.6740890688259" stroke="none" fill="#9510c2" rx="2.7105263157894735" transform="rotate(45, 266.66666666666663, 615.3846153846154)"></rect><rect width="5.421052631578947" height="30.76923076923077" x="263.95614035087715" y="600" stroke="none" fill="#9510c2" rx="2.7105263157894735" transform="rotate(45, 266.66666666666663, 615.3846153846154)"></rect><rect width="30.76923076923077" height="5.421052631578947" x="340.1709401709402" y="612.6740890688259" stroke="none" fill="#e90064" rx="2.7105263157894735" transform="rotate(45, 355.55555555555554, 615.3846153846154)"></rect><rect width="5.421052631578947" height="30.76923076923077" x="352.84502923976606" y="600" stroke="none" fill="#e90064" rx="2.7105263157894735" transform="rotate(45, 355.55555555555554, 615.3846153846154)"></rect><rect width="30.76923076923077" height="5.421052631578947" x="429.0598290598291" y="612.6740890688259" stroke="none" fill="#9510c2" rx="2.7105263157894735" transform="rotate(45, 444.44444444444446, 615.3846153846154)"></rect><rect width="5.421052631578947" height="30.76923076923077" x="441.733918128655" y="600" stroke="none" fill="#9510c2" rx="2.7105263157894735" transform="rotate(45, 444.44444444444446, 615.3846153846154)"></rect><rect width="30.76923076923077" height="5.421052631578947" x="517.948717948718" y="612.6740890688259" stroke="none" fill="#e90064" rx="2.7105263157894735" transform="rotate(45, 533.3333333333334, 615.3846153846154)"></rect><rect width="5.421052631578947" height="30.76923076923077" x="530.6228070175439" y="600" stroke="none" fill="#e90064" rx="2.7105263157894735" transform="rotate(45, 533.3333333333334, 615.3846153846154)"></rect><rect width="30.76923076923077" height="5.421052631578947" x="606.8376068376069" y="612.6740890688259" stroke="none" fill="#9510c2" rx="2.7105263157894735" transform="rotate(45, 622.2222222222223, 615.3846153846154)"></rect><rect width="5.421052631578947" height="30.76923076923077" x="619.5116959064328" y="600" stroke="none" fill="#9510c2" rx="2.7105263157894735" transform="rotate(45, 622.2222222222223, 615.3846153846154)"></rect><rect width="30.76923076923077" height="5.421052631578947" x="695.7264957264958" y="612.6740890688259" stroke="none" fill="#e90064" rx="2.7105263157894735" transform="rotate(45, 711.1111111111112, 615.3846153846154)"></rect><rect width="5.421052631578947" height="30.76923076923077" x="708.4005847953217" y="600" stroke="none" fill="#e90064" rx="2.7105263157894735" transform="rotate(45, 711.1111111111112, 615.3846153846154)"></rect><rect width="30.76923076923077" height="5.421052631578947" x="784.6153846153848" y="612.6740890688259" stroke="none" fill="#9510c2" rx="2.7105263157894735" transform="rotate(45, 800.0000000000001, 615.3846153846154)"></rect><rect width="5.421052631578947" height="30.76923076923077" x="797.2894736842106" y="600" stroke="none" fill="#9510c2" rx="2.7105263157894735" transform="rotate(45, 800.0000000000001, 615.3846153846154)"></rect><rect width="30.76923076923077" height="5.421052631578947" x="-15.384615384615385" y="674.2125506072874" stroke="none" fill="#e90064" rx="2.7105263157894735" transform="rotate(45, 0, 676.9230769230769)"></rect><rect width="5.421052631578947" height="30.76923076923077" x="-2.7105263157894735" y="661.5384615384615" stroke="none" fill="#e90064" rx="2.7105263157894735" transform="rotate(45, 0, 676.9230769230769)"></rect><rect width="30.76923076923077" height="5.421052631578947" x="73.5042735042735" y="674.2125506072874" stroke="none" fill="#9510c2" rx="2.7105263157894735" transform="rotate(45, 88.88888888888889, 676.9230769230769)"></rect><rect width="5.421052631578947" height="30.76923076923077" x="86.1783625730994" y="661.5384615384615" stroke="none" fill="#9510c2" rx="2.7105263157894735" transform="rotate(45, 88.88888888888889, 676.9230769230769)"></rect><rect width="30.76923076923077" height="5.421052631578947" x="162.39316239316238" y="674.2125506072874" stroke="none" fill="#e90064" rx="2.7105263157894735" transform="rotate(45, 177.77777777777777, 676.9230769230769)"></rect><rect width="5.421052631578947" height="30.76923076923077" x="175.0672514619883" y="661.5384615384615" stroke="none" fill="#e90064" rx="2.7105263157894735" transform="rotate(45, 177.77777777777777, 676.9230769230769)"></rect><rect width="30.76923076923077" height="5.421052631578947" x="251.28205128205124" y="674.2125506072874" stroke="none" fill="#9510c2" rx="2.7105263157894735" transform="rotate(45, 266.66666666666663, 676.9230769230769)"></rect><rect width="5.421052631578947" height="30.76923076923077" x="263.95614035087715" y="661.5384615384615" stroke="none" fill="#9510c2" rx="2.7105263157894735" transform="rotate(45, 266.66666666666663, 676.9230769230769)"></rect><rect width="30.76923076923077" height="5.421052631578947" x="340.1709401709402" y="674.2125506072874" stroke="none" fill="#e90064" rx="2.7105263157894735" transform="rotate(45, 355.55555555555554, 676.9230769230769)"></rect><rect width="5.421052631578947" height="30.76923076923077" x="352.84502923976606" y="661.5384615384615" stroke="none" fill="#e90064" rx="2.7105263157894735" transform="rotate(45, 355.55555555555554, 676.9230769230769)"></rect><rect width="30.76923076923077" height="5.421052631578947" x="429.0598290598291" y="674.2125506072874" stroke="none" fill="#9510c2" rx="2.7105263157894735" transform="rotate(45, 444.44444444444446, 676.9230769230769)"></rect><rect width="5.421052631578947" height="30.76923076923077" x="441.733918128655" y="661.5384615384615" stroke="none" fill="#9510c2" rx="2.7105263157894735" transform="rotate(45, 444.44444444444446, 676.9230769230769)"></rect><rect width="30.76923076923077" height="5.421052631578947" x="517.948717948718" y="674.2125506072874" stroke="none" fill="#e90064" rx="2.7105263157894735" transform="rotate(45, 533.3333333333334, 676.9230769230769)"></rect><rect width="5.421052631578947" height="30.76923076923077" x="530.6228070175439" y="661.5384615384615" stroke="none" fill="#e90064" rx="2.7105263157894735" transform="rotate(45, 533.3333333333334, 676.9230769230769)"></rect><rect width="30.76923076923077" height="5.421052631578947" x="606.8376068376069" y="674.2125506072874" stroke="none" fill="#9510c2" rx="2.7105263157894735" transform="rotate(45, 622.2222222222223, 676.9230769230769)"></rect><rect width="5.421052631578947" height="30.76923076923077" x="619.5116959064328" y="661.5384615384615" stroke="none" fill="#9510c2" rx="2.7105263157894735" transform="rotate(45, 622.2222222222223, 676.9230769230769)"></rect><rect width="30.76923076923077" height="5.421052631578947" x="695.7264957264958" y="674.2125506072874" stroke="none" fill="#e90064" rx="2.7105263157894735" transform="rotate(45, 711.1111111111112, 676.9230769230769)"></rect><rect width="5.421052631578947" height="30.76923076923077" x="708.4005847953217" y="661.5384615384615" stroke="none" fill="#e90064" rx="2.7105263157894735" transform="rotate(45, 711.1111111111112, 676.9230769230769)"></rect><rect width="30.76923076923077" height="5.421052631578947" x="784.6153846153848" y="674.2125506072874" stroke="none" fill="#9510c2" rx="2.7105263157894735" transform="rotate(45, 800.0000000000001, 676.9230769230769)"></rect><rect width="5.421052631578947" height="30.76923076923077" x="797.2894736842106" y="661.5384615384615" stroke="none" fill="#9510c2" rx="2.7105263157894735" transform="rotate(45, 800.0000000000001, 676.9230769230769)"></rect><rect width="30.76923076923077" height="5.421052631578947" x="-15.384615384615385" y="735.751012145749" stroke="none" fill="#e90064" rx="2.7105263157894735" transform="rotate(45, 0, 738.4615384615385)"></rect><rect width="5.421052631578947" height="30.76923076923077" x="-2.7105263157894735" y="723.0769230769231" stroke="none" fill="#e90064" rx="2.7105263157894735" transform="rotate(45, 0, 738.4615384615385)"></rect><rect width="30.76923076923077" height="5.421052631578947" x="73.5042735042735" y="735.751012145749" stroke="none" fill="#9510c2" rx="2.7105263157894735" transform="rotate(45, 88.88888888888889, 738.4615384615385)"></rect><rect width="5.421052631578947" height="30.76923076923077" x="86.1783625730994" y="723.0769230769231" stroke="none" fill="#9510c2" rx="2.7105263157894735" transform="rotate(45, 88.88888888888889, 738.4615384615385)"></rect><rect width="30.76923076923077" height="5.421052631578947" x="162.39316239316238" y="735.751012145749" stroke="none" fill="#e90064" rx="2.7105263157894735" transform="rotate(45, 177.77777777777777, 738.4615384615385)"></rect><rect width="5.421052631578947" height="30.76923076923077" x="175.0672514619883" y="723.0769230769231" stroke="none" fill="#e90064" rx="2.7105263157894735" transform="rotate(45, 177.77777777777777, 738.4615384615385)"></rect><rect width="30.76923076923077" height="5.421052631578947" x="251.28205128205124" y="735.751012145749" stroke="none" fill="#9510c2" rx="2.7105263157894735" transform="rotate(45, 266.66666666666663, 738.4615384615385)"></rect><rect width="5.421052631578947" height="30.76923076923077" x="263.95614035087715" y="723.0769230769231" stroke="none" fill="#9510c2" rx="2.7105263157894735" transform="rotate(45, 266.66666666666663, 738.4615384615385)"></rect><rect width="30.76923076923077" height="5.421052631578947" x="340.1709401709402" y="735.751012145749" stroke="none" fill="#e90064" rx="2.7105263157894735" transform="rotate(45, 355.55555555555554, 738.4615384615385)"></rect><rect width="5.421052631578947" height="30.76923076923077" x="352.84502923976606" y="723.0769230769231" stroke="none" fill="#e90064" rx="2.7105263157894735" transform="rotate(45, 355.55555555555554, 738.4615384615385)"></rect><rect width="30.76923076923077" height="5.421052631578947" x="429.0598290598291" y="735.751012145749" stroke="none" fill="#9510c2" rx="2.7105263157894735" transform="rotate(45, 444.44444444444446, 738.4615384615385)"></rect><rect width="5.421052631578947" height="30.76923076923077" x="441.733918128655" y="723.0769230769231" stroke="none" fill="#9510c2" rx="2.7105263157894735" transform="rotate(45, 444.44444444444446, 738.4615384615385)"></rect><rect width="30.76923076923077" height="5.421052631578947" x="517.948717948718" y="735.751012145749" stroke="none" fill="#e90064" rx="2.7105263157894735" transform="rotate(45, 533.3333333333334, 738.4615384615385)"></rect><rect width="5.421052631578947" height="30.76923076923077" x="530.6228070175439" y="723.0769230769231" stroke="none" fill="#e90064" rx="2.7105263157894735" transform="rotate(45, 533.3333333333334, 738.4615384615385)"></rect><rect width="30.76923076923077" height="5.421052631578947" x="606.8376068376069" y="735.751012145749" stroke="none" fill="#9510c2" rx="2.7105263157894735" transform="rotate(45, 622.2222222222223, 738.4615384615385)"></rect><rect width="5.421052631578947" height="30.76923076923077" x="619.5116959064328" y="723.0769230769231" stroke="none" fill="#9510c2" rx="2.7105263157894735" transform="rotate(45, 622.2222222222223, 738.4615384615385)"></rect><rect width="30.76923076923077" height="5.421052631578947" x="695.7264957264958" y="735.751012145749" stroke="none" fill="#e90064" rx="2.7105263157894735" transform="rotate(45, 711.1111111111112, 738.4615384615385)"></rect><rect width="5.421052631578947" height="30.76923076923077" x="708.4005847953217" y="723.0769230769231" stroke="none" fill="#e90064" rx="2.7105263157894735" transform="rotate(45, 711.1111111111112, 738.4615384615385)"></rect><rect width="30.76923076923077" height="5.421052631578947" x="784.6153846153848" y="735.751012145749" stroke="none" fill="#9510c2" rx="2.7105263157894735" transform="rotate(45, 800.0000000000001, 738.4615384615385)"></rect><rect width="5.421052631578947" height="30.76923076923077" x="797.2894736842106" y="723.0769230769231" stroke="none" fill="#9510c2" rx="2.7105263157894735" transform="rotate(45, 800.0000000000001, 738.4615384615385)"></rect><rect width="30.76923076923077" height="5.421052631578947" x="-15.384615384615385" y="797.2894736842105" stroke="none" fill="#e90064" rx="2.7105263157894735" transform="rotate(45, 0, 800)"></rect><rect width="5.421052631578947" height="30.76923076923077" x="-2.7105263157894735" y="784.6153846153846" stroke="none" fill="#e90064" rx="2.7105263157894735" transform="rotate(45, 0, 800)"></rect><rect width="30.76923076923077" height="5.421052631578947" x="73.5042735042735" y="797.2894736842105" stroke="none" fill="#9510c2" rx="2.7105263157894735" transform="rotate(45, 88.88888888888889, 800)"></rect><rect width="5.421052631578947" height="30.76923076923077" x="86.1783625730994" y="784.6153846153846" stroke="none" fill="#9510c2" rx="2.7105263157894735" transform="rotate(45, 88.88888888888889, 800)"></rect><rect width="30.76923076923077" height="5.421052631578947" x="162.39316239316238" y="797.2894736842105" stroke="none" fill="#e90064" rx="2.7105263157894735" transform="rotate(45, 177.77777777777777, 800)"></rect><rect width="5.421052631578947" height="30.76923076923077" x="175.0672514619883" y="784.6153846153846" stroke="none" fill="#e90064" rx="2.7105263157894735" transform="rotate(45, 177.77777777777777, 800)"></rect><rect width="30.76923076923077" height="5.421052631578947" x="251.28205128205124" y="797.2894736842105" stroke="none" fill="#9510c2" rx="2.7105263157894735" transform="rotate(45, 266.66666666666663, 800)"></rect><rect width="5.421052631578947" height="30.76923076923077" x="263.95614035087715" y="784.6153846153846" stroke="none" fill="#9510c2" rx="2.7105263157894735" transform="rotate(45, 266.66666666666663, 800)"></rect><rect width="30.76923076923077" height="5.421052631578947" x="340.1709401709402" y="797.2894736842105" stroke="none" fill="#e90064" rx="2.7105263157894735" transform="rotate(45, 355.55555555555554, 800)"></rect><rect width="5.421052631578947" height="30.76923076923077" x="352.84502923976606" y="784.6153846153846" stroke="none" fill="#e90064" rx="2.7105263157894735" transform="rotate(45, 355.55555555555554, 800)"></rect><rect width="30.76923076923077" height="5.421052631578947" x="429.0598290598291" y="797.2894736842105" stroke="none" fill="#9510c2" rx="2.7105263157894735" transform="rotate(45, 444.44444444444446, 800)"></rect><rect width="5.421052631578947" height="30.76923076923077" x="441.733918128655" y="784.6153846153846" stroke="none" fill="#9510c2" rx="2.7105263157894735" transform="rotate(45, 444.44444444444446, 800)"></rect><rect width="30.76923076923077" height="5.421052631578947" x="517.948717948718" y="797.2894736842105" stroke="none" fill="#e90064" rx="2.7105263157894735" transform="rotate(45, 533.3333333333334, 800)"></rect><rect width="5.421052631578947" height="30.76923076923077" x="530.6228070175439" y="784.6153846153846" stroke="none" fill="#e90064" rx="2.7105263157894735" transform="rotate(45, 533.3333333333334, 800)"></rect><rect width="30.76923076923077" height="5.421052631578947" x="606.8376068376069" y="797.2894736842105" stroke="none" fill="#9510c2" rx="2.7105263157894735" transform="rotate(45, 622.2222222222223, 800)"></rect><rect width="5.421052631578947" height="30.76923076923077" x="619.5116959064328" y="784.6153846153846" stroke="none" fill="#9510c2" rx="2.7105263157894735" transform="rotate(45, 622.2222222222223, 800)"></rect><rect width="30.76923076923077" height="5.421052631578947" x="695.7264957264958" y="797.2894736842105" stroke="none" fill="#e90064" rx="2.7105263157894735" transform="rotate(45, 711.1111111111112, 800)"></rect><rect width="5.421052631578947" height="30.76923076923077" x="708.4005847953217" y="784.6153846153846" stroke="none" fill="#e90064" rx="2.7105263157894735" transform="rotate(45, 711.1111111111112, 800)"></rect><rect width="30.76923076923077" height="5.421052631578947" x="784.6153846153848" y="797.2894736842105" stroke="none" fill="#9510c2" rx="2.7105263157894735" transform="rotate(45, 800.0000000000001, 800)"></rect><rect width="5.421052631578947" height="30.76923076923077" x="797.2894736842106" y="784.6153846153846" stroke="none" fill="#9510c2" rx="2.7105263157894735" transform="rotate(45, 800.0000000000001, 800)"></rect></g></svg>