<svg id="visual" viewBox="0 0 900 450" width="900" height="450" xmlns="http://www.w3.org/2000/svg" xmlns:xlink="http://www.w3.org/1999/xlink" version="1.1"><path d="M0 96L225 141L450 141L675 127L900 132L900 0L675 0L450 0L225 0L0 0Z" fill="#95000f"></path><path d="M0 145L225 177L450 190L675 159L900 177L900 130L675 125L450 139L225 139L0 94Z" fill="#aa000b"></path><path d="M0 213L225 249L450 262L675 249L900 226L900 175L675 157L450 188L225 175L0 143Z" fill="#bf0004"></path><path d="M0 253L225 303L450 325L675 316L900 285L900 224L675 247L450 260L225 247L0 211Z" fill="#cf1c11"></path><path d="M0 298L225 339L450 357L675 352L900 334L900 283L675 314L450 323L225 301L0 251Z" fill="#da392c"></path><path d="M0 451L225 451L450 451L675 451L900 451L900 332L675 350L450 355L225 337L0 296Z" fill="#e34f43"></path></svg>